<svg width="36" height="16" viewBox="0 0 36 16" fill="none" xmlns="http://www.w3.org/2000/svg">
<path d="M32.9081 2.33745C29.7552 -0.77915 24.6318 -0.77915 21.457 2.33745L19.5522 4.22497L17.6473 6.11248L16.1804 7.56104L15.7206 8L14.8229 8.89986L11.9108 11.775C9.80893 13.8601 6.39332 13.8601 4.29141 11.775C2.18949 9.68999 2.18949 6.31001 4.29141 4.22497C6.39332 2.13992 9.80893 2.13992 11.9108 4.22497L14.3412 6.63923L15.4578 5.54184L16.246 4.75171L13.8157 2.33745C10.6628 -0.77915 5.53942 -0.77915 2.36465 2.33745C-0.788217 5.47599 -0.788217 10.546 2.36465 13.6626C5.51752 16.7792 10.6409 16.7792 13.8157 13.6626L16.7277 10.7874L17.6254 9.88752L19.0924 8.43896L19.5522 8L21.457 6.11248L23.3619 4.22497C25.4638 2.13992 28.8794 2.13992 30.9813 4.22497C33.0832 6.31001 33.0832 9.68999 30.9813 11.775C28.8794 13.8601 25.4638 13.8601 23.3619 11.775L20.9316 9.36077L19.8149 10.4582L19.0267 11.2483L21.457 13.6626C24.6099 16.7792 29.7333 16.7792 32.9081 13.6626C36.0609 10.524 36.0609 5.45405 32.9081 2.33745Z" fill="white"/>
</svg>
